#!OML:ASF I:\Actors\actors\Patient Classification 1\Patient 1\Session 1\Subject1.ASF
:FULLY-SPECIFIED
:DEGREES
495
root 0.574946 17.5463 9.17158 12.3865 -0.974725 -10.3564
lowerback 2.29569 2.37935 5.3126
upperback -7.28765 3.6972 1.5305
thorax -8.75439 1.51077 -1.70183
lowerneck -18.4804 -3.37893 -1.12377
upperneck 26.1469 -6.62091 7.17729
head 11.9696 -2.14941 1.82888
rclavicle 1.11319e-014 4.21423e-014
rhumerus 23.9015 52.7561 -61.2046
rradius 66.9713
rwrist 29.3203
rhand -21.0913 -51.7668
rfingers 7.12502
rthumb 5.28617 -81.6809
lclavicle 1.11319e-014 4.21423e-014
lhumerus 31.3201 -47.982 51.1875
lradius 50.7816
lwrist 34.9151
lhand -21.9133 5.76779
lfingers 7.12502
lthumb 4.49246 35.7001
rfemur -7.51944 27.0185 25.5078
rtibia 0.788644
rfoot -10.7781 -27.0376
rtoes 3.48594
lfemur 2.05319 -52.2247 -7.81504
ltibia -4.77671
lfoot -30.287 58.6823
ltoes 15.9717
496
root 0.579907 17.5457 9.17985 12.3237 -1.17108 -10.2677
lowerback 2.26626 2.44412 5.36776
upperback -7.30934 3.78208 1.46825
thorax -8.74811 1.54588 -1.80445
lowerneck -18.4231 -3.38691 -1.15365
upperneck 26.3049 -6.65766 7.24674
head 12.0262 -2.15645 1.8571
rclavicle 2.55687e-014 -7.95139e-015
rhumerus 23.4268 52.0939 -61.7709
rradius 67.0581
rwrist 31.0502
rhand -22.2051 -52.1687
rfingers 7.12502
rthumb 4.21074 -82.1068
lclavicle 2.55687e-014 -7.95139e-015
lhumerus 30.3505 -48.9011 50.8062
lradius 52.4723
lwrist 36.6212
lhand -24.4152 7.17095
lfingers 7.12502
lthumb 2.07636 37.1406
rfemur -7.42683 27.1003 25.4173
rtibia 0.817723
rfoot -10.7651 -26.9474
rtoes 3.40206
lfemur 2.36821 -52.3074 -8.23436
ltibia -4.7582
lfoot -30.6456 58.837
ltoes 16.1833
497
root 0.591001 17.5389 9.1869 12.1935 -1.2154 -10.5387
lowerback 2.34064 2.46906 5.94244
upperback -7.3243 3.86379 1.49991
thorax -8.77631 1.54547 -2.09973
lowerneck -18.3581 -3.41018 -1.17045
upperneck 26.4139 -6.67966 7.19544
head 12.055 -2.17312 1.83942
rclavicle -2.31833e-014 -3.57812e-014
rhumerus 23.1179 51.4886 -62.1607
rradius 67.0625
rwrist 32.5767
rhand -22.7072 -52.4846
rfingers 7.12502
rthumb 3.72585 -82.4318
lclavicle -2.31833e-014 -3.57812e-014
lhumerus 29.2985 -49.9497 50.3378
lradius 54.2602
lwrist 37.6071
lhand -28.0081 8.31983
lfingers 7.12502
lthumb -1.39371 38.295
rfemur -7.1773 26.854 25.8285
rtibia 0.770415
rfoot -10.6767 -26.6566
rtoes 3.21082
lfemur 2.76593 -52.0994 -8.27666
ltibia -4.83411
lfoot -30.2842 58.7901
ltoes 15.9231
498
root 0.607304 17.5272 9.19298 11.9729 -1.19096 -11.1381
lowerback 2.5022 2.46667 6.95462
upperback -7.30037 3.95246 1.6165
thorax -8.79708 1.52156 -2.5505
lowerneck -18.2742 -3.39756 -1.13386
upperneck 26.4467 -6.64542 7.09713
head 12.0429 -2.16816 1.80315
rclavicle 2.67738e-014 1.74931e-014
rhumerus 23.2012 51.0284 -62.1561
rradius 67.0775
rwrist 32.9786
rhand -22.6093 -52.6553
rfingers 7.12502
rthumb 3.82042 -82.6008
lclavicle 2.67738e-014 1.74931e-014
lhumerus 28.2596 -50.996 49.753
lradius 56.0401
lwrist 38.6716
lhand -32.237 9.33305
lfingers 7.12502
lthumb -5.4776 39.2423
rfemur -6.77416 26.2276 26.7045
rtibia 0.681378
rfoot -10.4213 -26.0406
rtoes 2.39062
lfemur 3.34244 -51.6149 -8.06754
ltibia -4.99231
lfoot -29.5578 58.5312
ltoes 15.552
499
root 0.61796 17.5206 9.1994 11.848 -1.27701 -11.5362
lowerback 2.53783 2.49355 7.59902
upperback -7.27607 4.04269 1.70949
thorax -8.75861 1.52605 -2.81612
lowerneck -18.1656 -3.37249 -1.18595
upperneck 26.3923 -6.61171 7.17934
head 12.0032 -2.15214 1.84882
rclavicle -1.67973e-014 -1.19271e-015
rhumerus 23.4242 50.6035 -62.0088
rradius 67.0063
rwrist 33.2384
rhand -21.9953 -52.7542
rfingers 7.12502
rthumb 4.41331 -82.6883
lclavicle -1.67973e-014 -1.19271e-015
lhumerus 27.4072 -52.1044 48.9092
lradius 57.951
lwrist 40.6442
lhand -37.0537 10.0329
lfingers 7.12502
lthumb -10.1264 39.7693
rfemur -6.55175 25.8331 27.2544
rtibia 0.655344
rfoot -10.2031 -25.5328
rtoes 1.77068
lfemur 3.71857 -51.2193 -7.93099
ltibia -5.08339
lfoot -29.2614 58.3362
ltoes 15.3844
500
root 0.618789 17.5236 9.20884 11.9526 -1.56527 -11.3246
lowerback 2.31551 2.58832 7.38668
upperback -7.3065 4.13015 1.65265
thorax -8.65783 1.58544 -2.75512
lowerneck -18.0554 -3.39184 -1.31775
upperneck 26.2951 -6.64131 7.35466
head 11.957 -2.1618 1.93216
rclavicle -2.78795e-014 5.96354e-015
rhumerus 23.6687 50.1668 -61.8614
rradius 66.8715
rwrist 33.3773
rhand -20.3981 -52.1734
rfingers 7.12502
rthumb 5.95551 -82.0697
lclavicle -2.78795e-014 5.96354e-015
lhumerus 26.7005 -53.301 47.8606
lradius 60.0614
lwrist 43.4377
lhand -41.8841 9.67408
lfingers 7.12502
lthumb -14.7835 39.1268
rfemur -6.69617 26.0456 26.897
rtibia 0.683956
rfoot -10.2558 -25.455
rtoes 2.17982
lfemur 3.76716 -51.4039 -8.2686
ltibia -5.02957
lfoot -30.1123 58.5655
ltoes 15.9556
501
root 0.613119 17.5318 9.22014 12.1823 -2.00609 -10.6754
lowerback 1.93156 2.7252 6.58247
upperback -7.36253 4.21559 1.48942
thorax -8.51371 1.68215 -2.47116
lowerneck -18.0073 -3.42716 -1.40047
upperneck 26.2324 -6.68423 7.43405
head 11.9316 -2.18228 1.96872
rclavicle -4.02539e-014 1.98785e-015
rhumerus 24.1608 49.8388 -61.4938
rradius 66.6178
rwrist 33.181
rhand -17.6013 -51.0222
rfingers 7.12502
rthumb 8.65508 -80.8248
lclavicle -4.02539e-014 1.98785e-015
lhumerus 25.9275 -54.4737 46.9135
lradius 62.1969
lwrist 45.7236
lhand -45.7884 7.66397
lfingers 7.12502
lthumb -18.5422 36.8002
rfemur -7.0663 26.5288 25.9106
rtibia 0.745027
rfoot -10.4583 -25.5457
rtoes 3.01005
lfemur 3.6548 -51.9209 -9.01415
ltibia -4.87845
lfoot -31.6809 59.0163
ltoes 16.979
502
root 0.6102 17.536 9.22693 12.2864 -2.3858 -10.2981
lowerback 1.73135 2.83991 6.11752
upperback -7.38735 4.31806 1.40374
thorax -8.43324 1.76419 -2.30227
lowerneck -18.0307 -3.41991 -1.42415
upperneck 26.2213 -6.67343 7.45978
head 11.9333 -2.17619 1.98371
rclavicle 2.98177e-014 9.93923e-015
rhumerus 24.9514 49.7214 -60.8562
rradius 66.232
rwrist 32.3681
rhand -14.4123 -50.0525
rfingers 7.12502
rthumb 11.7316 -79.704
lclavicle 2.98177e-014 9.93923e-015
lhumerus 25.2343 -55.6679 45.9367
lradius 64.26
lwrist 46.4429
lhand -48.3008 4.52715
lfingers 7.12502
lthumb -20.9574 33.4149
rfemur -7.29296 26.6435 25.3389
rtibia 0.841764
rfoot -10.441 -25.3234
rtoes 2.8888
lfemur 3.69795 -52.1242 -9.55718
ltibia -4.78779
lfoot -32.799 59.2441
ltoes 17.7056
503
root 0.613609 17.5352 9.22736 12.3079 -2.67895 -10.2719
lowerback 1.72724 2.9595 6.17504
upperback -7.41799 4.47982 1.35102
thorax -8.44366 1.83681 -2.40235
lowerneck -18.0318 -3.41426 -1.33591
upperneck 26.2371 -6.69035 7.44622
head 11.9374 -2.17594 1.96119
rclavicle 2.15433e-014 3.45885e-014
rhumerus 25.8221 49.683 -60.1593
rradius 65.7268
rwrist 31.102
rhand -11.6844 -49.1656
rfingers 7.12502
rthumb 14.3611 -78.6489
lclavicle 2.15433e-014 3.45885e-014
lhumerus 25.0312 -57.0348 44.481
lradius 66.2743
lwrist 45.8432
lhand -50.079 1.64002
lfingers 7.12502
lthumb -22.6649 30.3291
rfemur -7.43632 26.3598 25.2408
rtibia 0.979087
rfoot -10.2514 -24.7674
rtoes 2.15326
lfemur 3.83569 -52.0857 -9.76851
ltibia -4.75425
lfoot -33.434 59.3576
ltoes 18.1259
504
root 0.618538 17.5339 9.22625 12.352 -2.93886 -10.2628
lowerback 1.72768 3.09489 6.31125
upperback -7.4808 4.66671 1.25303
thorax -8.48066 1.913 -2.59646
lowerneck -17.9771 -3.46856 -1.18929
upperneck 26.2574 -6.80528 7.41075
head 11.9344 -2.2178 1.90558
rclavicle 1.82385e-014 -3.26007e-014
rhumerus 26.5844 49.557 -59.6351
rradius 65.0191
rwrist 30.2111
rhand -9.11971 -47.8734
rfingers 7.12502
rthumb 16.8312 -77.164
lclavicle 1.82385e-014 -3.26007e-014
lhumerus 25.3243 -58.4878 42.6319
lradius 68.2095
lwrist 45.0703
lhand -51.8926 -1.03842
lfingers 7.12502
lthumb -24.4045 27.4273
rfemur -7.58469 26.2054 25.1391
rtibia 1.07232
rfoot -10.2273 -24.344
rtoes 2.1834
lfemur 3.93449 -52.1424 -9.93281
ltibia -4.71628
lfoot -34.0857 59.5193
ltoes 18.5302
505
root 0.621118 17.5334 9.22722 12.3578 -3.13952 -10.2242
lowerback 1.67555 3.20863 6.4016
upperback -7.49676 4.81518 1.16685
thorax -8.441 1.97769 -2.74479
lowerneck -17.9511 -3.56524 -1.31258
upperneck 26.2632 -6.96909 7.61772
head 11.9551 -2.2773 1.97842
rclavicle 6.01324e-015 -1.82882e-014
rhumerus 27.4515 49.3865 -59.1014
rradius 64.1435
rwrist 29.6836
rhand -6.67225 -46.0826
rfingers 7.12502
rthumb 19.186 -75.1563
lclavicle 6.01324e-015 -1.82882e-014
lhumerus 25.7723 -59.6716 40.8877
lradius 70.0532
lwrist 45.0111
lhand -53.3663 -3.79266
lfingers 7.12502
lthumb -25.8166 24.4754
rfemur -7.56287 26.3651 25.0588
rtibia 1.02584
rfoot -10.282 -24.2899
rtoes 2.50487
lfemur 4.14004 -52.3375 -10.1928
ltibia -4.70624
lfoot -34.7179 59.7279
ltoes 18.8353
506
root 0.621444 17.5338 9.22727 12.3625 -3.31718 -10.2137
lowerback 1.56912 3.302 6.48241
upperback -7.45932 4.93105 1.12798
thorax -8.31758 2.03327 -2.8296
lowerneck -17.829 -3.57775 -1.41342
upperneck 26.0769 -6.98903 7.79369
head 11.871 -2.28276 2.05694
rclavicle 1.97791e-014 -1.43125e-014
rhumerus 28.4853 49.2094 -58.4831
rradius 63.1995
rwrist 29.3383
rhand -4.44528 -44.0313
rfingers 7.12502
rthumb 21.3263 -72.8778
lclavicle 1.97791e-014 -1.43125e-014
lhumerus 26.1118 -60.4538 39.4796
lradius 71.871
lwrist 45.685
lhand -54.1761 -6.0709
lfingers 7.12502
lthumb -26.5918 22.082
rfemur -7.53377 26.4581 25.0278
rtibia 0.965166
rfoot -10.2005 -24.2157
rtoes 2.2936
lfemur 4.34262 -52.5747 -10.3974
ltibia -4.70825
lfoot -35.3795 59.9781
ltoes 19.0801
507
root 0.622345 17.5335 9.2257 12.3748 -3.46605 -10.2553
lowerback 1.49935 3.3663 6.57226
upperback -7.43851 5.01616 1.1412
thorax -8.24089 2.07306 -2.86515
lowerneck -17.6656 -3.52631 -1.31096
upperneck 25.8663 -6.91277 7.75618
head 11.7465 -2.25401 2.03622
rclavicle 1.53064e-014 -6.75868e-015
rhumerus 29.5426 49.1404 -57.8878
rradius 62.1452
rwrist 29.5518
rhand -2.15275 -42.189
rfingers 7.12502
rthumb 23.5269 -70.7702
lclavicle 1.53064e-014 -6.75868e-015
lhumerus 26.2877 -61.0136 38.3544
lradius 73.6359
lwrist 46.6486
lhand -54.8123 -8.03632
lfingers 7.12502
lthumb -27.2006 20.0228
rfemur -7.55623 26.3291 25.0451
rtibia 0.944286
rfoot -10.0554 -23.9426
rtoes 1.93258
lfemur 4.52119 -52.8539 -10.5288
ltibia -4.70139
lfoot -36.2113 60.2305
ltoes 19.5281
508
root 0.623174 17.5332 9.22391 12.3602 -3.59402 -10.2814
lowerback 1.4905 3.41354 6.60754
upperback -7.42946 5.08163 1.16038
thorax -8.219 2.10468 -2.8678
lowerneck -17.5208 -3.52048 -1.35802
upperneck 25.6084 -6.89215 7.85298
head 11.6228 -2.24917 2.08114
rclavicle -5.54112e-014 -4.05521e-014
rhumerus 30.6387 49.1247 -57.3202
rradius 60.9038
rwrist 29.7022
rhand 0.250386 -40.3139
rfingers 7.12502
rthumb 25.8302 -68.5799
lclavicle -5.54112e-014 -4.05521e-014
lhumerus 26.4464 -61.4288 37.3416
lradius 75.2699
lwrist 47.309
lhand -55.487 -9.98371
lfingers 7.12502
lthumb -27.8459 17.9727
rfemur -7.51604 26.3207 25.0625
rtibia 0.886947
rfoot -9.99149 -23.7972
rtoes 1.87231
lfemur 4.717 -53.0703 -10.6989
ltibia -4.68634
lfoot -36.8717 60.4065
ltoes 19.963
